<svg xmlns="http://www.w3.org/2000/svg" xmlns:xlink="http://www.w3.org/1999/xlink" viewBox="0 0 1717.41 351.31"><defs><style>.cls-1{fill:#ff853f;}.cls-2{fill:url(#linear-gradient);}.cls-3{fill:#fff;}.cls-4{fill:url(#linear-gradient-2);}.cls-5{fill:url(#linear-gradient-3);}.cls-6{fill:url(#linear-gradient-4);}</style><linearGradient id="linear-gradient" x1="71.76" y1="-21.83" x2="259.15" y2="-130.02" gradientTransform="matrix(1, 0, 0, -1, 0, 107.44)" gradientUnits="userSpaceOnUse"><stop offset="0" stop-color="#ffb53f"/><stop offset="1" stop-color="#ff853f"/></linearGradient><linearGradient id="linear-gradient-2" x1="1147.29" y1="172.4" x2="1323.94" y2="172.4" gradientTransform="matrix(1, 0, 0, 1, 0, 0)" xlink:href="#linear-gradient"/><linearGradient id="linear-gradient-3" x1="1343.28" y1="167.75" x2="1519.93" y2="167.75" gradientTransform="matrix(1, 0, 0, 1, 0, 0)" xlink:href="#linear-gradient"/><linearGradient id="linear-gradient-4" x1="1540.76" y1="172.4" x2="1717.41" y2="172.4" gradientTransform="matrix(1, 0, 0, 1, 0, 0)" xlink:href="#linear-gradient"/></defs><title>BHUBLogoBlackBg</title><g id="Layer_2" data-name="Layer 2"><g id="Layer_1-2" data-name="Layer 1"><polygon class="cls-1" points="0 87.83 0 263.48 152.12 351.31 304.24 263.48 304.24 87.83 152.12 0 0 87.83"/><polygon points="18.73 98.64 18.73 252.66 152.12 329.68 285.51 252.66 285.51 98.64 152.12 21.63 18.73 98.64"/><g id="Layer_1-2-2" data-name="Layer 1-2"><path class="cls-2" d="M151.18,53.36,98.31,84.84v62.52l-54,29.52v60l106,60.73L259.4,237V114.11ZM235.83,223.1l-85.37,47.43L67.86,223.2V190.86l30.45-16.67V204l53,34.1,53-34.06V148.55l-52.88-30.24L133.7,128V154.9l17.54-9.59,29.61,16.91v29l-29.5,18.9-29.47-18.9v-93l29.64-17.64,84.31,47.31Z"/></g><path class="cls-3" d="M477.42,88.73q46.48,0,46.48,46.48v9.3q0,17.12-6.32,27.89,6.33,10.78,6.32,27.89v9.3q0,46.49-46.48,46.49H347.25V88.73Zm0,37.19h-93v27.89h93q9.29,0,9.29-9.3v-9.3Q486.71,125.93,477.42,125.92Zm-93,27.89v65.08h93q9.29,0,9.29-9.3v-9.3q0-9.28-9.29-9.29H403Z"/><path class="cls-3" d="M680.38,209.59V98l37.19-18.59V209.59q0,46.49-46.49,46.49H587.4q-46.49,0-46.48-46.49V88.73h37.19V209.59q0,9.3,9.29,9.3h83.68Q680.38,218.89,680.38,209.59Z"/><path class="cls-3" d="M769.91,256.08H732.72V88.73h37.19Z"/><path class="cls-3" d="M827.28,218.89v37.19H790.09V88.73H920.25q46.49,0,46.49,46.48v74.38q0,46.49-46.49,46.49H845.87Zm0,0h93q9.3,0,9.3-9.3V135.21q0-9.28-9.3-9.29h-93Z"/><path class="cls-3" d="M1020.94,218.89h120.87l-18.6,37.19H983.75V88.73h37.19Z"/><path class="cls-4" d="M1184.48,191v55.78l-37.19,18.6V88.73h37.19v65.08h102.27V98l37.19-18.59V256.08h-37.19V191Z"/><path class="cls-5" d="M1482.74,209.59V98l37.19-18.59V209.59q0,46.49-46.49,46.49h-83.67q-46.5,0-46.49-46.49V88.73h37.19V209.59q0,9.3,9.3,9.3h83.67Q1482.74,218.89,1482.74,209.59Z"/><path class="cls-6" d="M1670.92,88.73q46.49,0,46.49,46.48v9.3q0,17.12-6.33,27.89,6.33,10.78,6.33,27.89v9.3q0,46.49-46.49,46.49H1540.76V88.73Zm0,37.19h-93v27.89h93q9.3,0,9.3-9.3v-9.3Q1680.22,125.93,1670.92,125.92Zm-93,27.89v65.08h93q9.3,0,9.3-9.3v-9.3q0-9.28-9.3-9.29h-74.38Z"/></g></g></svg>