<svg xmlns="http://www.w3.org/2000/svg" xmlns:xlink="http://www.w3.org/1999/xlink" viewBox="0 0 215 215"><defs><style>.cls-1{fill:url(#linear-gradient);}.cls-2{fill:#fff;}</style><linearGradient id="linear-gradient" x1="17.46" y1="205.4" x2="192.14" y2="15.48" gradientUnits="userSpaceOnUse"><stop offset="0" stop-color="#7278da"/><stop offset="1" stop-color="#868cfc"/></linearGradient></defs><g id="Layer_2" data-name="Layer 2"><g id="Layer_1-2" data-name="Layer 1"><rect class="cls-1" width="215" height="215" rx="12"/><path class="cls-2" d="M94.9,99.9c-4.7,0-8.3,4.1-8.3,9.1s3.7,9,8.3,9,8.3-4.1,8.3-9S99.5,99.9,94.9,99.9Zm29.7,0c-4.6,0-8.3,4.1-8.3,9.1s3.8,9,8.3,9,8.4-4.1,8.4-9S129.3,99.9,124.6,99.9Z"/><path class="cls-2" d="M164.3,31.5H55A16.8,16.8,0,0,0,38.3,48.3V158.5A16.8,16.8,0,0,0,55,175.3h92.5l-4.3-15,10.4,9.7,9.9,9.1L181,194.6V48.3A16.8,16.8,0,0,0,164.3,31.5ZM132.8,138l-5.4-6.6c10.7-3,14.8-9.7,14.8-9.7a49.3,49.3,0,0,1-9.4,4.8A57.9,57.9,0,0,1,121,130a55.6,55.6,0,0,1-21.2-.1,68.2,68.2,0,0,1-11.9-3.5,35.6,35.6,0,0,1-6-2.8l-.7-.4-.4-.2-2.2-1.4s3.9,6.5,14.2,9.6L87.4,138c-18.1-.6-24.9-12.4-24.9-12.4C62.5,99.3,74.2,78,74.2,78c11.8-8.8,23-8.5,23-8.5l.8,1C83.3,74.7,76.5,81.1,76.5,81.1l4.8-2.3a62.6,62.6,0,0,1,18.5-5.2h1.4a69.4,69.4,0,0,1,16.5-.2,67.4,67.4,0,0,1,24.6,7.8S135.8,75,122,70.8l1.1-1.3s11.2-.3,22.9,8.5c0,0,11.8,21.3,11.8,47.6C157.8,125.6,150.8,137.4,132.8,138Z"/></g></g></svg>