<svg xmlns="http://www.w3.org/2000/svg" xmlns:xlink="http://www.w3.org/1999/xlink" viewBox="0 0 215 215"><defs><style>.cls-1{fill:url(#linear-gradient);}.cls-2{fill:#fff;}</style><linearGradient id="linear-gradient" x1="213.69" y1="3.99" x2="11.23" y2="201.34" gradientUnits="userSpaceOnUse"><stop offset="0" stop-color="#6588ee"/><stop offset="0.61" stop-color="#35ace0"/><stop offset="1" stop-color="#35ace0"/></linearGradient></defs><g id="Layer_2" data-name="Layer 2"><g id="Layer_1-2" data-name="Layer 1"><rect class="cls-1" width="215" height="215" rx="12"/><path class="cls-2" d="M173.9,64.8c-.5,2.7-1.3,6.3-2,9.9l-18.3,86.2a20.8,20.8,0,0,1-1.6,4.8,5.1,5.1,0,0,1-6.6,3,16.3,16.3,0,0,1-4.4-2.1l-27.4-20.2c-2.2-1.6-2.2-1.6-4.2.4L96.1,159.7a7.5,7.5,0,0,1-5.9,2.5c-1.9-.1-3-.8-3.5-2.6l-10-30.7c-.7-2.1-1-4.8-2.4-6.2s-4.1-1.7-6.3-2.4l-22.1-7a13.3,13.3,0,0,1-3-1.1c-3.2-1.7-3.5-4.4-.6-6.5a22.9,22.9,0,0,1,5.6-2.9L80,90.4l84.2-32.5.8-.3C170.1,55.7,174,58.4,173.9,64.8ZM90.3,153.3a5.3,5.3,0,0,0,.3-1.3c.6-6.3,1.3-12.6,1.7-18.9a5.6,5.6,0,0,1,1.9-3.8q22-19.7,43.9-39.5l11.2-10.2c.5-.4.6-1.2.8-1.9s-1.4-.5-2-.3a8.4,8.4,0,0,0-2.9,1.3L81.2,119c-1.4.8-1.8,1.6-1.3,3.3,3.3,9.7,6.4,19.4,9.6,29.1A20.5,20.5,0,0,0,90.3,153.3Z"/></g></g></svg>